<svg width="17" height="18" viewBox="0 0 17 18" fill="none" xmlns="http://www.w3.org/2000/svg">
<g clip-path="url(#clip0_209_3317)">
<rect y="0.5" width="17" height="17" rx="8.5" fill="#FF7253"/>
<path d="M7.764 3.576H9.252L8.996 11.928H8.004L7.764 3.576ZM8.5 13.096C8.772 13.096 9.012 13.176 9.204 13.368C9.38 13.544 9.476 13.768 9.476 14.04C9.476 14.328 9.38 14.552 9.204 14.728C9.012 14.904 8.772 15 8.5 15C8.228 15 8.004 14.904 7.812 14.728C7.62 14.536 7.54 14.312 7.54 14.04C7.54 13.768 7.62 13.544 7.812 13.368C8.004 13.176 8.228 13.096 8.5 13.096Z" fill="white"/>
</g>
<defs>
<clipPath id="clip0_209_3317">
<rect y="0.5" width="17" height="17" rx="8.5" fill="white"/>
</clipPath>
</defs>
</svg>
