<svg width="36" height="36" viewBox="0 0 36 36" fill="none" xmlns="http://www.w3.org/2000/svg">
<circle cx="18" cy="18" r="18" fill="url(#paint0_linear_209_2723)"/>
<path d="M17.4997 13.2695C15.164 13.2695 13.2705 15.163 13.2705 17.4987C13.2705 19.8344 15.164 21.7279 17.4997 21.7279C19.8342 21.7251 21.726 19.8332 21.7288 17.4987C21.7288 15.163 19.8354 13.2695 17.4997 13.2695ZM17.4997 20.5195C15.8313 20.5195 14.4788 19.1671 14.4788 17.4987C14.4788 15.8303 15.8313 14.4779 17.4997 14.4779C19.1673 14.4796 20.5187 15.831 20.5205 17.4987C20.5205 19.1671 19.1681 20.5195 17.4997 20.5195ZM28.5658 15.1127L26.2861 14.3528C26.2592 14.3438 26.233 14.3329 26.2077 14.3203C25.9092 14.1714 25.7879 13.8087 25.9368 13.5103L27.0118 11.3614C27.1278 11.1288 27.0821 10.8481 26.8985 10.6641L24.3355 8.09989C24.1513 7.9167 23.8709 7.87112 23.6381 7.98661L21.4881 9.0616C21.4627 9.07422 21.4366 9.08506 21.4097 9.09405C21.0933 9.19967 20.7512 9.02871 20.6456 8.71232L19.8857 6.43254C19.8031 6.18599 19.5722 6.01975 19.3122 6.01953H15.6872C15.4271 6.01938 15.1963 6.18584 15.1142 6.43254L14.3543 8.71232C14.2998 8.87907 14.1746 9.0133 14.0121 9.0793C13.8507 9.14863 13.6668 9.14214 13.5106 9.0616L11.3618 7.98661C11.1292 7.87053 10.8484 7.91611 10.6644 8.09989L8.10087 10.6641C7.91694 10.8479 7.87128 11.1288 7.98759 11.3614L9.06258 13.5103C9.07556 13.5361 9.08662 13.5629 9.09577 13.5903C9.20064 13.9065 9.02947 14.2478 8.7133 14.3528L6.43351 15.1127C6.18696 15.1953 6.02073 15.4262 6.02051 15.6862V19.3112C6.02073 19.5712 6.18696 19.8021 6.43351 19.8847L8.71271 20.6446C8.73985 20.6536 8.7664 20.6646 8.79199 20.6774C9.09031 20.8263 9.21148 21.1888 9.06258 21.4871L7.98759 23.6359C7.87128 23.8686 7.91694 24.1495 8.10087 24.3333L10.6645 26.8975C10.8486 27.0811 11.1292 27.1266 11.3619 27.0108L13.5107 25.9358C13.6665 25.8541 13.851 25.8476 14.0122 25.9181C14.1747 25.9841 14.2999 26.1183 14.3543 26.2851L15.1143 28.5649C15.1964 28.8116 15.4272 28.9779 15.6872 28.9779H19.3122C19.5722 28.9776 19.8031 28.8113 19.8857 28.5648L20.6456 26.285C20.6546 26.2582 20.6654 26.232 20.678 26.2066C20.8269 25.9081 21.1896 25.7868 21.4881 25.9357L23.6381 27.0107C23.8709 27.1256 24.151 27.0801 24.3355 26.8974L26.8985 24.3333C27.0821 24.1493 27.1278 23.8686 27.0118 23.6359L25.9368 21.4871C25.858 21.3305 25.8515 21.1474 25.9191 20.9856C25.9851 20.8234 26.1194 20.6986 26.2861 20.6446L28.5658 19.8847C28.8124 19.8021 28.9786 19.5712 28.9788 19.3112V15.6862C28.9786 15.4262 28.8124 15.1953 28.5658 15.1127ZM27.7705 18.8758L25.9037 19.4976C25.8225 19.5247 25.7434 19.5575 25.6668 19.5957C24.7714 20.0433 24.4083 21.1321 24.8559 22.0276L25.7362 23.787L23.7891 25.7352L22.0286 24.8549C21.9513 24.8162 21.8713 24.7831 21.7893 24.7558C20.84 24.44 19.8144 24.9535 19.4986 25.9028L18.8767 27.7695H16.1226L15.5001 25.9028C15.4731 25.8218 15.4404 25.743 15.4023 25.6667C14.9549 24.7709 13.866 24.4075 12.9701 24.8549L11.2108 25.7352L9.26318 23.787L10.1435 22.0276C10.1815 21.9513 10.2142 21.8724 10.2412 21.7916C10.5581 20.8416 10.045 19.8146 9.09503 19.4976L7.22884 18.8758V16.1216L9.09562 15.4998C9.17616 15.4729 9.25478 15.4403 9.33074 15.4024C10.2269 14.9551 10.5908 13.866 10.1435 12.9699L9.26318 11.2104L11.2109 9.26221L12.9702 10.1425C13.0465 10.1806 13.1253 10.2133 13.2062 10.2403C14.156 10.5573 15.183 10.0445 15.5001 9.09465L16.1226 7.22786H18.8767L19.4987 9.09465C19.526 9.17666 19.5591 9.2566 19.5978 9.33389C20.0458 10.2285 21.134 10.5905 22.0286 10.1425L23.7891 9.26221L25.7362 11.2105L24.8559 12.9699C24.8172 13.0471 24.784 13.127 24.7568 13.2091C24.441 14.1584 24.9545 15.1839 25.9037 15.4998L27.7705 16.1216V18.8758Z" fill="white"/>
<defs>
<linearGradient id="paint0_linear_209_2723" x1="18" y1="0" x2="18" y2="36" gradientUnits="userSpaceOnUse">
<stop stop-color="#D9D9D9" stop-opacity="0.23"/>
<stop offset="1" stop-color="#737373" stop-opacity="0.43"/>
</linearGradient>
</defs>
</svg>
